<!-- Generated by IcoMoon.io -->
<svg version="1.1" xmlns="http://www.w3.org/2000/svg" width="1024" height="1024" viewBox="0 0 1024 1024">
<title>github1</title>
<g id="icomoon-ignore">
</g>
<path fill="#000" d="M512 801.6v-353.6h32v353.6l104-104 24 24-144 144-144-144 24-24 104 104zM608 96h-319.727c-35.497 0-64.273 28.747-64.273 64.235v735.531c0 35.476 28.51 64.235 63.918 64.235h480.165c35.301 0 63.918-28.51 63.918-63.918v-544.082h-159.811c-35.451 0-64.189-28.375-64.189-63.939v-192.061zM640 96v191.906c0 17.725 14.431 32.094 31.705 32.094h160.295l-192-224z"></path>
</svg>
